# Created by FreeCAD <http://www.freecadweb.org>
v 9.000000 14.092135 -3.000000
v 9.000000 16.000000 -3.000000
v 9.000000 14.092135 -5.000000
v 9.000000 16.000000 -5.000000
v 11.000000 12.092135 -3.000000
v 11.000000 16.000000 -3.000000
v 11.000000 16.000000 -5.000000
v 11.000000 12.092135 -5.000000
v 7.021068 16.071068 -0.000000
v 14.092135 9.000000 -0.000000
v 7.021068 16.071068 -10.000000
v 14.092135 9.000000 -10.000000
v -0.050000 9.000000 -0.000000
v -0.050000 9.000000 -10.000000
v 7.000000 14.900000 -10.000000
v 1.100000 9.000000 -10.000000
v 12.900000 9.000000 -10.000000
v 1.100000 9.000000 -0.000000
v 7.000000 14.900000 -0.000000
v 12.900000 9.000000 -0.000000
v 12.900000 9.000000 -0.500000
v 13.000000 9.000000 -0.500000
v 12.900000 9.000000 -9.500000
v 13.000000 9.000000 -9.500000
v 1.000000 9.000000 -0.500000
v 1.100000 9.000000 -0.500000
v 1.000000 9.000000 -9.500000
v 1.100000 9.000000 -9.500000
v 7.000000 14.900000 -9.500000
v 7.000000 14.900000 -0.500000
v 13.000000 8.900000 -0.500000
v 13.000000 -0.000000 -0.500000
v 13.000000 -0.000000 -9.500000
v 13.000000 8.900000 -9.500000
v 1.000000 8.900000 -9.500000
v 1.000000 -0.000000 -9.500000
v 1.000000 -0.000000 -0.500000
v 1.000000 8.900000 -0.500000
v 7.000000 -0.000000 -5.000000
v 7.000000 -0.000000 -5.100000
v 7.100000 -0.000000 -5.000000
v 7.100000 -0.000000 -5.100000
v 7.100000 -1.900000 -5.000000
v 7.000000 -1.900000 -5.000000
v 7.100000 -1.900000 -5.100000
v 7.000000 -1.900000 -5.100000
v 7.100000 -2.000000 -5.000000
v 7.000000 -2.000000 -5.000000
v 20.000000 -1.900000 -5.100000
v 20.000000 -1.900000 -5.000000
v 7.100000 -2.000000 -5.100000
v 7.000000 -2.000000 -5.100000
v 6.900000 -1.900000 -5.100000
v 6.900000 -1.900000 -5.000000
v 20.000000 -2.000000 -5.000000
v 7.000000 -2.000000 5.000000
v 7.000000 -1.900000 5.000000
v 20.000000 -2.000000 -5.100000
v 7.000000 -2.000000 -15.000000
v 7.000000 -1.900000 -15.000000
v 6.900000 -1.900000 -15.000000
v 6.900000 -1.900000 5.000000
v -5.000000 -1.900000 -5.100000
v -5.000000 -1.900000 -5.000000
v 6.900000 -2.000000 5.000000
v 6.900000 -2.000000 -5.000000
v 6.900000 -2.000000 -5.100000
v 6.900000 -2.000000 -15.000000
v -5.000000 -2.000000 -5.100000
v -5.000000 -2.000000 -5.000000
vn -1.000000 0.000000 0.000000
vn -1.000000 0.000000 0.000000
vn 0.000000 -0.000000 1.000000
vn 0.000000 0.000000 1.000000
vn 0.000000 1.000000 0.000000
vn 0.000000 1.000000 -0.000000
vn 0.000000 -0.000000 -1.000000
vn -0.000000 0.000000 -1.000000
vn 0.707107 0.707107 -0.000000
vn 0.707107 0.707107 0.000000
vn 0.707107 0.707107 0.000000
vn 0.707107 0.707107 -0.000000
vn 0.707107 0.707107 -0.000000
vn 0.707107 0.707107 0.000000
vn 0.707107 0.707107 0.000000
vn 0.707107 0.707107 -0.000000
vn 1.000000 0.000000 0.000000
vn 1.000000 0.000000 0.000000
vn -0.707107 0.707107 0.000000
vn -0.707107 0.707107 0.000000
vn 0.000000 0.000000 -1.000000
vn 0.000000 0.000000 -1.000000
vn 0.000000 0.000000 -1.000000
vn 0.000000 0.000000 -1.000000
vn 0.000000 -0.000000 1.000000
vn 0.000000 -0.000000 1.000000
vn -0.000000 -0.000000 1.000000
vn -0.000000 -0.000000 1.000000
vn 0.000000 -1.000000 0.000000
vn 0.000000 -1.000000 0.000000
vn 0.000000 -1.000000 0.000000
vn 0.000000 -1.000000 0.000000
vn 0.000000 -1.000000 0.000000
vn 0.000000 -1.000000 0.000000
vn 0.000000 -1.000000 0.000000
vn 0.000000 -1.000000 0.000000
vn 0.000000 -1.000000 0.000000
vn 0.000000 -1.000000 0.000000
vn 0.000000 -1.000000 0.000000
vn 0.000000 -1.000000 0.000000
vn 0.707107 -0.707107 0.000000
vn 0.707107 -0.707107 0.000000
vn -0.707107 -0.707107 0.000000
vn -0.707107 -0.707107 0.000000
vn 0.707107 -0.707107 0.000000
vn 0.707107 -0.707107 0.000000
vn -0.707107 -0.707107 0.000000
vn -0.707107 -0.707107 -0.000000
vn 0.000000 -0.000000 1.000000
vn 1.000000 0.000000 0.000000
vn 1.000000 0.000000 0.000000
vn 1.000000 0.000000 0.000000
vn 1.000000 0.000000 0.000000
vn -0.000000 -0.000000 -1.000000
vn -0.000000 0.000000 -1.000000
vn -1.000000 0.000000 0.000000
vn -1.000000 0.000000 0.000000
vn -1.000000 0.000000 0.000000
vn -1.000000 0.000000 0.000000
vn 0.000000 0.000000 1.000000
vn 0.000000 0.000000 -1.000000
vn 0.000000 0.000000 1.000000
vn 0.000000 0.000000 1.000000
vn -0.000000 0.000000 1.000000
vn 0.000000 -0.000000 1.000000
vn 0.000000 0.000000 1.000000
vn 0.000000 -0.000000 -1.000000
vn -0.000000 0.000000 -1.000000
vn 0.000000 -1.000000 0.000000
vn 0.000000 -1.000000 0.000000
vn 0.000000 -1.000000 0.000000
vn 0.000000 -1.000000 0.000000
vn 0.000000 -1.000000 0.000000
vn 0.000000 -1.000000 0.000000
vn 0.000000 -1.000000 0.000000
vn 0.000000 -1.000000 0.000000
vn 0.000000 0.000000 -1.000000
vn -0.000000 -0.000000 -1.000000
vn 0.000000 -0.000000 1.000000
vn 0.000000 0.000000 1.000000
vn 1.000000 0.000000 0.000000
vn 1.000000 0.000000 0.000000
vn 0.000000 -0.000000 -1.000000
vn -0.000000 0.000000 -1.000000
vn -1.000000 0.000000 0.000000
vn -1.000000 0.000000 0.000000
vn 0.000000 -0.000000 1.000000
vn 0.000000 0.000000 1.000000
vn 0.000000 1.000000 0.000000
vn 0.000000 1.000000 -0.000000
vn 0.000000 0.000000 -1.000000
vn -0.000000 -0.000000 -1.000000
vn 0.000000 1.000000 0.000000
vn 0.000000 1.000000 -0.000000
vn 0.000000 -0.000000 1.000000
vn 0.000000 0.000000 1.000000
vn 1.000000 -0.000000 0.000000
vn 1.000000 0.000000 0.000000
vn 0.000000 -1.000000 0.000000
vn 0.000000 -1.000000 0.000000
vn 0.000000 -0.000000 -1.000000
vn -0.000000 0.000000 -1.000000
vn 1.000000 0.000000 0.000000
vn 1.000000 0.000000 0.000000
vn 1.000000 -0.000000 0.000000
vn 1.000000 0.000000 0.000000
vn 0.000000 1.000000 0.000000
vn 0.000000 1.000000 0.000000
vn 0.000000 1.000000 0.000000
vn 0.000000 1.000000 0.000000
vn 0.000000 1.000000 0.000000
vn 0.000000 1.000000 -0.000000
vn 0.000000 -1.000000 0.000000
vn 0.000000 -1.000000 0.000000
vn 0.000000 -1.000000 0.000000
vn 0.000000 -1.000000 -0.000000
vn 0.000000 -0.000000 1.000000
vn 0.000000 0.000000 1.000000
vn 0.000000 -1.000000 0.000000
vn 0.000000 -1.000000 0.000000
vn 0.000000 -1.000000 0.000000
vn 0.000000 -1.000000 -0.000000
vn 0.000000 -0.000000 -1.000000
vn -0.000000 0.000000 -1.000000
vn -1.000000 0.000000 0.000000
vn -1.000000 0.000000 0.000000
vn -1.000000 0.000000 0.000000
vn -1.000000 0.000000 0.000000
vn 0.000000 -0.000000 -1.000000
vn -0.000000 0.000000 -1.000000
vn 0.000000 -0.000000 1.000000
vn 0.000000 0.000000 1.000000
vn -1.000000 0.000000 0.000000
vn -1.000000 0.000000 0.000000
vn 0.000000 -1.000000 0.000000
vn 0.000000 -1.000000 0.000000
f 1//1 2//1 3//1
f 3//2 2//2 4//2
f 5//3 6//3 1//3
f 1//4 6//4 2//4
f 7//5 4//5 2//5
f 7//6 2//6 6//6
f 7//7 8//7 3//7
f 7//8 3//8 4//8
f 3//9 9//9 1//9
f 5//10 1//10 9//10
f 10//11 5//11 9//11
f 11//12 9//12 3//12
f 8//13 5//13 10//13
f 8//14 11//14 3//14
f 12//15 11//15 8//15
f 12//16 8//16 10//16
f 6//17 5//17 8//17
f 6//18 8//18 7//18
f 13//19 9//19 14//19
f 14//20 9//20 11//20
f 15//21 16//21 14//21
f 11//22 15//22 14//22
f 17//23 15//23 11//23
f 12//24 17//24 11//24
f 18//25 19//25 13//25
f 19//26 9//26 13//26
f 19//27 20//27 9//27
f 20//28 10//28 9//28
f 21//29 22//29 20//29
f 22//30 10//30 20//30
f 23//31 17//31 24//31
f 24//32 12//32 22//32
f 17//33 12//33 24//33
f 22//34 12//34 10//34
f 13//35 25//35 18//35
f 25//36 26//36 18//36
f 14//37 27//37 13//37
f 13//38 27//38 25//38
f 27//39 16//39 28//39
f 14//40 16//40 27//40
f 16//41 15//41 28//41
f 28//42 15//42 29//42
f 15//43 17//43 29//43
f 29//44 17//44 23//44
f 19//45 18//45 26//45
f 19//46 26//46 30//46
f 20//47 19//47 30//47
f 20//48 30//48 21//48
f 31//49 22//49 21//49
f 32//50 33//50 34//50
f 31//51 34//51 24//51
f 31//52 32//52 34//52
f 22//53 31//53 24//53
f 24//54 34//54 23//54
f 28//55 35//55 27//55
f 36//56 37//56 35//56
f 35//57 38//57 27//57
f 37//58 38//58 35//58
f 38//59 25//59 27//59
f 38//60 26//60 25//60
f 23//61 28//61 29//61
f 26//62 21//62 30//62
f 38//63 31//63 26//63
f 26//64 31//64 21//64
f 32//65 31//65 37//65
f 37//66 31//66 38//66
f 34//67 33//67 36//67
f 34//68 36//68 35//68
f 36//69 39//69 37//69
f 36//70 40//70 39//70
f 41//71 32//71 39//71
f 39//72 32//72 37//72
f 40//73 33//73 42//73
f 42//74 33//74 41//74
f 41//75 33//75 32//75
f 36//76 33//76 40//76
f 34//77 35//77 28//77
f 23//78 34//78 28//78
f 43//79 41//79 44//79
f 44//80 41//80 39//80
f 41//81 43//81 45//81
f 41//82 45//82 42//82
f 42//83 45//83 46//83
f 42//84 46//84 40//84
f 44//85 39//85 46//85
f 46//86 39//86 40//86
f 47//87 43//87 48//87
f 48//88 43//88 44//88
f 49//89 45//89 43//89
f 49//90 43//90 50//90
f 46//91 51//91 52//91
f 45//92 51//92 46//92
f 46//93 53//93 54//93
f 46//94 54//94 44//94
f 55//95 50//95 47//95
f 47//96 50//96 43//96
f 56//97 48//97 57//97
f 48//98 44//98 57//98
f 52//99 51//99 48//99
f 48//100 51//100 47//100
f 49//101 58//101 51//101
f 49//102 51//102 45//102
f 50//103 55//103 58//103
f 50//104 58//104 49//104
f 52//105 59//105 46//105
f 59//106 60//106 46//106
f 61//107 53//107 46//107
f 61//108 46//108 60//108
f 54//109 62//109 57//109
f 54//110 57//110 44//110
f 53//111 63//111 64//111
f 53//112 64//112 54//112
f 51//113 58//113 47//113
f 47//114 58//114 55//114
f 65//115 66//115 56//115
f 56//116 66//116 48//116
f 56//117 57//117 65//117
f 65//118 57//118 62//118
f 67//119 52//119 66//119
f 66//120 52//120 48//120
f 67//121 68//121 52//121
f 52//122 68//122 59//122
f 60//123 59//123 68//123
f 60//124 68//124 61//124
f 68//125 67//125 53//125
f 61//126 68//126 53//126
f 66//127 65//127 62//127
f 54//128 66//128 62//128
f 53//129 67//129 69//129
f 53//130 69//130 63//130
f 66//131 54//131 70//131
f 70//132 54//132 64//132
f 70//133 64//133 69//133
f 69//134 64//134 63//134
f 69//135 67//135 70//135
f 70//136 67//136 66//136
