# Created by FreeCAD <http://www.freecadweb.org>
v 1.732051 -0.000000 -1.000000
v 1.645448 0.250003 0.000003
v 1.732051 -0.000000 1.000000
v 1.558842 0.500021 0.900006
v 1.558849 0.499992 -0.899994
v 0.822722 0.250012 1.425002
v 0.000000 0.000000 2.000000
v -0.000007 0.500029 1.800000
v -0.822727 0.250009 1.424999
v -1.732051 0.000000 1.000000
v -1.558849 0.500008 0.899994
v -1.645448 0.249997 -0.000003
v -1.732051 0.000000 -1.000000
v -1.558842 0.499979 -0.900006
v -0.822722 0.249988 -1.425002
v -0.000000 0.000000 -2.000000
v 0.000007 0.499971 -1.800000
v 0.822727 0.249991 -1.424999
vn 0.944912 0.327323 -0.000000
vn 0.944913 0.327320 -0.000001
vn 0.944913 0.327323 -0.000002
vn 0.944912 0.327326 -0.000001
vn 0.472458 0.327312 0.818321
vn 0.472457 0.327316 0.818321
vn 0.472456 0.327312 0.818322
vn 0.472458 0.327309 0.818323
vn -0.472457 0.327316 0.818320
vn -0.472458 0.327329 0.818315
vn -0.472464 0.327316 0.818317
vn -0.472463 0.327304 0.818322
vn -0.944910 0.327331 0.000000
vn -0.944905 0.327346 -0.000004
vn -0.944910 0.327331 -0.000009
vn -0.944915 0.327316 -0.000004
vn -0.472453 0.327341 -0.818313
vn -0.472450 0.327350 -0.818311
vn -0.472449 0.327341 -0.818315
vn -0.472452 0.327333 -0.818316
vn 0.472454 0.327337 -0.818314
vn 0.472454 0.327337 -0.818314
vn 0.472454 0.327338 -0.818314
vn 0.472454 0.327338 -0.818314
vn -0.000000 -1.000000 0.000000
vn -0.000000 -1.000000 0.000000
vn -0.000000 -1.000000 0.000000
vn -0.000000 -1.000000 0.000000
vn -0.000004 1.000000 -0.000016
vn -0.000004 1.000000 -0.000016
vn -0.000004 1.000000 -0.000016
vn -0.000004 1.000000 -0.000016
f 1//1 2//1 3//1
f 3//2 2//2 4//2
f 4//3 2//3 5//3
f 5//4 2//4 1//4
f 3//5 6//5 7//5
f 7//6 6//6 8//6
f 8//7 6//7 4//7
f 4//8 6//8 3//8
f 7//9 9//9 10//9
f 10//10 9//10 11//10
f 11//11 9//11 8//11
f 8//12 9//12 7//12
f 10//13 12//13 13//13
f 13//14 12//14 14//14
f 14//15 12//15 11//15
f 11//16 12//16 10//16
f 13//17 15//17 16//17
f 16//18 15//18 17//18
f 17//19 15//19 14//19
f 14//20 15//20 13//20
f 16//21 18//21 1//21
f 1//22 18//22 5//22
f 5//23 18//23 17//23
f 17//24 18//24 16//24
f 16//25 1//25 3//25
f 10//26 3//26 7//26
f 13//27 16//27 3//27
f 13//28 3//28 10//28
f 5//29 14//29 4//29
f 4//30 14//30 8//30
f 8//31 14//31 11//31
f 17//32 14//32 5//32
