####
#
# OBJ File Generated by Meshlab
#
####
# Object Plattform.obj
#
# Vertices: 18
# Faces: 32
#
####
mtllib ./Plattform.obj.mtl

vn 0.766895 -0.464571 -0.442770
v 1.732051 -0.000000 -1.000000
vn 0.944912 0.327324 -0.000001
v 1.645448 0.250003 0.000003
vn 0.766895 -0.464579 0.442763
v 1.732051 -0.000000 1.000000
vn 0.574471 0.748316 0.331671
v 1.558842 0.500021 0.900006
vn 0.574469 0.748318 -0.331671
v 1.558849 0.499992 -0.899994
vn 0.472457 0.327312 0.818322
v 0.822722 0.250012 1.425002
vn 0.000002 -0.464581 0.885531
v 0.000000 0.000000 2.000000
vn -0.000007 0.748316 0.663343
v -0.000007 0.500029 1.800000
vn -0.472461 0.327316 0.818318
v -0.822727 0.250009 1.424999
vn -0.766894 -0.464575 0.442767
v -1.732051 0.000000 1.000000
vn -0.574476 0.748317 0.331661
v -1.558849 0.500008 0.899994
vn -0.944910 0.327331 -0.000004
v -1.645448 0.249997 -0.000003
vn -0.766899 -0.464568 -0.442768
v -1.732051 0.000000 -1.000000
vn -0.574464 0.748319 -0.331678
v -1.558842 0.499979 -0.900006
vn -0.472451 0.327342 -0.818314
v -0.822722 0.249988 -1.425002
vn -0.000002 -0.464566 -0.885539
v -0.000000 0.000000 -2.000000
vn 0.000003 0.748319 -0.663339
v 0.000007 0.499971 -1.800000
vn 0.472454 0.327338 -0.818314
v 0.822727 0.249991 -1.424999
# 18 vertices, 0 vertices normals


usemtl material_0
vt 0.250000 1.000000
vt 0.500001 0.975000
vt 0.750000 1.000000
f 1/1/1 2/2/2 3/3/3
vt 0.725002 0.949999
f 3/3/3 2/2/2 4/4/4
vt 0.275001 0.950001
f 4/4/4 2/2/2 5/5/5
f 5/5/5 2/2/2 1/1/1
vt 0.856251 0.737499
vt 1.000000 0.500000
f 3/3/3 6/6/6 7/7/7
vt 0.950000 0.499998
f 7/7/7 6/6/6 8/8/8
f 8/8/8 6/6/6 4/4/4
f 4/4/4 6/6/6 3/3/3
vt 0.856250 0.262499
vt 0.750000 0.000000
f 7/7/7 9/9/9 10/10/10
vt 0.724998 0.049999
f 10/10/10 9/9/9 11/11/11
f 11/11/11 9/9/9 8/8/8
f 8/8/8 9/9/9 7/7/7
vt 0.499999 0.025000
vt 0.250000 0.000000
f 10/10/10 12/12/12 13/13/13
vt 0.274998 0.050001
f 13/13/13 12/12/12 14/14/14
f 14/14/14 12/12/12 11/11/11
f 11/11/11 12/12/12 10/10/10
vt 0.143750 0.262501
vt 0.000000 0.500000
f 13/13/13 15/15/15 16/16/16
vt 0.050000 0.500002
f 16/16/16 15/15/15 17/17/17
f 17/17/17 15/15/15 14/14/14
f 14/14/14 15/15/15 13/13/13
vt 0.143750 0.737501
f 16/16/16 18/18/18 1/1/1
f 1/1/1 18/18/18 5/5/5
f 5/5/5 18/18/18 17/17/17
f 17/17/17 18/18/18 16/16/16
f 16/16/16 1/1/1 3/3/3
f 10/10/10 3/3/3 7/7/7
f 13/13/13 16/16/16 3/3/3
f 13/13/13 3/3/3 10/10/10
f 5/5/5 14/14/14 4/4/4
f 4/4/4 14/14/14 8/8/8
f 8/8/8 14/14/14 11/11/11
f 17/17/17 14/14/14 5/5/5
# 32 faces, 18 coords texture

# End of File
