# Created by FreeCAD <http://www.freecadweb.org>
v 10.000000 10.833333 -0.000000
v 10.000000 10.000000 1.000000
v 25.000000 10.000000 1.000000
v 25.000000 15.000000 -5.000000
v 10.000000 15.000000 -5.000000
v 10.000000 10.000000 -0.000000
v 25.000000 10.000000 -0.000000
v 10.000000 10.833333 -10.000000
v 25.000000 10.000000 -11.000000
v 10.000000 10.000000 -11.000000
v 10.000000 15.000000 -3.907516
v 10.000000 15.000000 -2.820711
v 10.000000 15.000000 -1.570711
v 10.000000 15.000000 -0.000000
v 25.000000 10.000000 -10.000000
v 25.000000 0.000000 0.000000
v 10.000000 0.000000 0.000000
v 10.000000 10.000000 -10.000000
v 10.000000 15.000000 -8.907516
v 10.000000 15.000000 -10.000000
v 10.000000 15.000000 -7.657516
v 10.000000 15.000000 -6.407516
v 0.000000 10.000000 -0.000000
v 2.500000 15.000000 -0.000000
v 0.000000 15.000000 -0.000000
v 3.750000 15.000000 -0.000000
v 6.250000 15.000000 -0.000000
v 7.500000 15.000000 -0.000000
v 10.000000 17.000000 -1.570711
v 10.000000 17.000000 -0.000000
v 10.000000 17.000000 -2.820711
v 1.500000 15.000000 -2.500000
v 0.000000 15.000000 -3.750000
v 0.000000 15.000000 -2.500000
v 2.500000 15.000000 -1.500000
v 1.500000 15.000000 -1.500000
v 3.750000 15.000000 -1.500000
v 1.963434 15.000000 -3.750000
v 6.250000 15.000000 -1.500000
v 7.500000 15.000000 -1.500000
v 1.500000 15.000000 -7.500000
v 0.000000 15.000000 -7.500000
v 0.000000 15.000000 -6.250000
v 1.963434 15.000000 -6.250000
v 2.500000 15.000000 -8.500000
v 1.500000 15.000000 -8.500000
v 8.500000 15.000000 -2.820711
v 8.500000 15.000000 -1.500000
v 3.750000 15.000000 -8.500000
v 8.500000 15.000000 -3.907516
v 3.750000 15.000000 -10.000000
v 2.500000 15.000000 -10.000000
v 6.250000 15.000000 -8.500000
v 8.500000 15.000000 -6.407516
v 7.500000 15.000000 -8.500000
v 8.500000 15.000000 -7.657516
v 8.500000 15.000000 -8.500000
v 7.500000 15.000000 -10.000000
v 6.250000 15.000000 -10.000000
v 10.000000 17.000000 -6.407516
v 10.000000 17.000000 -3.907516
v 25.000000 -0.000000 -10.000000
v 10.000000 -0.000000 -10.000000
v 2.008352 0.000000 0.000000
v 2.008352 4.973199 -0.000000
v 0.000000 0.000000 0.000000
v 2.570192 6.745482 -0.000000
v 2.258949 6.198881 -0.000000
v 2.068868 5.599285 -0.000000
v 2.988840 7.214929 -0.000000
v 3.496387 7.586469 -0.000000
v 4.070397 7.843680 -0.000000
v 4.685499 7.975192 -0.000000
v 7.991648 4.973197 -0.000000
v 7.991648 0.000000 0.000000
v 7.931132 5.599283 -0.000000
v 7.741052 6.198879 -0.000000
v 7.429809 6.745481 -0.000000
v 7.011162 7.214928 -0.000000
v 6.503615 7.586468 -0.000000
v 5.929605 7.843679 -0.000000
v 5.314503 7.975192 -0.000000
v 10.000000 17.000000 -7.657516
v 10.000000 17.000000 -8.907516
v 10.000000 17.000000 -10.000000
v 0.000000 10.000000 -10.000000
v 0.000000 15.000000 -10.000000
v 0.000000 17.000000 -0.000000
v 2.500000 17.000000 -0.000000
v 3.750000 17.000000 -0.000000
v 6.250000 17.000000 -0.000000
v 7.500000 17.000000 -0.000000
v 8.500000 17.000000 -1.500000
v 7.500000 17.000000 -1.500000
v 8.500000 17.000000 -2.820711
v 1.963434 17.000000 -3.750000
v 0.000000 17.000000 -3.750000
v 1.963434 17.000000 -6.250000
v 0.000000 17.000000 -6.250000
v 1.500000 17.000000 -7.500000
v 0.000000 17.000000 -7.500000
v 1.500000 17.000000 -8.500000
v 2.500000 17.000000 -8.500000
v 2.500000 17.000000 -10.000000
v 3.750000 17.000000 -10.000000
v 3.750000 17.000000 -8.500000
v 6.250000 17.000000 -8.500000
v 6.250000 17.000000 -10.000000
v 7.500000 17.000000 -10.000000
v 7.500000 17.000000 -8.500000
v 8.500000 17.000000 -8.500000
v 8.500000 17.000000 -7.657516
v 8.500000 17.000000 -6.407516
v 8.500000 17.000000 -3.907516
v 6.250000 17.000000 -1.500000
v 3.750000 17.000000 -1.500000
v 2.500000 17.000000 -1.500000
v 1.500000 17.000000 -1.500000
v 1.500000 17.000000 -2.500000
v 0.000000 17.000000 -2.500000
v 2.008352 -0.000000 -1.000000
v 7.991648 -0.000000 -1.000000
v 0.000000 -0.000000 -10.000000
v 2.008352 4.973199 -1.000000
v 7.991648 4.973197 -1.000000
v 7.931132 5.599283 -1.000000
v 7.741052 6.198879 -1.000000
v 7.429809 6.745481 -1.000000
v 7.011162 7.214928 -1.000000
v 6.503615 7.586468 -1.000000
v 5.929605 7.843679 -1.000000
v 5.314503 7.975192 -1.000000
v 4.685499 7.975192 -1.000000
v 4.070397 7.843680 -1.000000
v 3.496387 7.586469 -1.000000
v 2.988840 7.214929 -1.000000
v 2.570192 6.745482 -1.000000
v 2.258949 6.198881 -1.000000
v 2.068868 5.599285 -1.000000
v 0.000000 17.000000 -10.000000
vn 0.000000 0.768221 0.640184
vn -0.000000 0.768221 0.640184
vn -0.000000 0.768221 0.640184
vn 0.000000 -1.000000 0.000000
vn 0.000000 -1.000000 0.000000
vn 0.000000 0.768221 -0.640184
vn -0.000000 0.768221 -0.640184
vn 0.000000 0.768221 -0.640184
vn -1.000000 0.000000 0.000000
vn 1.000000 0.000000 0.000000
vn 1.000000 0.000000 0.000000
vn 1.000000 0.000000 0.000000
vn 1.000000 0.000000 0.000000
vn 1.000000 0.000000 0.000000
vn 1.000000 0.000000 0.000000
vn 1.000000 0.000000 0.000000
vn 0.000000 0.000000 1.000000
vn 0.000000 0.000000 1.000000
vn 0.000000 -1.000000 0.000000
vn 0.000000 -1.000000 0.000000
vn 1.000000 0.000000 0.000000
vn 1.000000 0.000000 0.000000
vn 1.000000 0.000000 0.000000
vn 1.000000 0.000000 0.000000
vn -1.000000 0.000000 0.000000
vn 0.000000 0.000000 1.000000
vn 0.000000 0.000000 1.000000
vn 0.000000 0.000000 1.000000
vn 0.000000 0.000000 1.000000
vn 0.000000 0.000000 1.000000
vn 0.000000 0.000000 1.000000
vn 0.000000 0.000000 1.000000
vn 1.000000 0.000000 0.000000
vn 1.000000 0.000000 0.000000
vn 1.000000 -0.000000 0.000000
vn 1.000000 0.000000 0.000000
vn 0.000000 1.000000 0.000000
vn 0.000000 1.000000 0.000000
vn 0.000000 1.000000 0.000000
vn 0.000000 1.000000 -0.000000
vn 0.000000 1.000000 0.000000
vn 0.000000 1.000000 -0.000000
vn 0.000000 1.000000 0.000000
vn 0.000000 1.000000 0.000000
vn 0.000000 1.000000 0.000000
vn 0.000000 1.000000 -0.000000
vn 0.000000 1.000000 0.000000
vn 0.000000 1.000000 -0.000000
vn 0.000000 1.000000 0.000000
vn 0.000000 1.000000 0.000000
vn 0.000000 1.000000 -0.000000
vn 0.000000 1.000000 0.000000
vn 0.000000 1.000000 0.000000
vn 0.000000 1.000000 0.000000
vn 0.000000 1.000000 0.000000
vn 0.000000 1.000000 -0.000000
vn 0.000000 1.000000 0.000000
vn 0.000000 1.000000 -0.000000
vn 0.000000 1.000000 -0.000000
vn 0.000000 1.000000 0.000000
vn 0.000000 1.000000 0.000000
vn 0.000000 1.000000 -0.000000
vn 0.000000 1.000000 0.000000
vn 0.000000 1.000000 -0.000000
vn 0.000000 1.000000 -0.000000
vn 0.000000 1.000000 0.000000
vn 0.000000 1.000000 -0.000000
vn 0.000000 1.000000 0.000000
vn 0.000000 1.000000 -0.000000
vn 0.000000 1.000000 -0.000000
vn 1.000000 0.000000 0.000000
vn 1.000000 -0.000000 0.000000
vn 1.000000 -0.000000 0.000000
vn 1.000000 0.000000 0.000000
vn 1.000000 0.000000 0.000000
vn 0.000000 -1.000000 0.000000
vn 0.000000 -1.000000 0.000000
vn 0.000000 0.000000 1.000000
vn 0.000000 0.000000 1.000000
vn 0.000000 0.000000 1.000000
vn -0.000000 -0.000000 1.000000
vn 0.000000 0.000000 1.000000
vn 0.000000 0.000000 1.000000
vn 0.000000 0.000000 1.000000
vn 0.000000 0.000000 1.000000
vn 0.000000 0.000000 1.000000
vn 0.000000 0.000000 1.000000
vn 0.000000 -0.000000 1.000000
vn 0.000000 0.000000 1.000000
vn 0.000000 0.000000 1.000000
vn 0.000000 0.000000 1.000000
vn 0.000000 0.000000 1.000000
vn 0.000000 0.000000 1.000000
vn 0.000000 0.000000 1.000000
vn 0.000000 0.000000 1.000000
vn 0.000000 0.000000 1.000000
vn -0.000000 0.000000 1.000000
vn 0.000000 -0.000000 -1.000000
vn -0.000000 0.000000 -1.000000
vn 1.000000 -0.000000 0.000000
vn 1.000000 0.000000 0.000000
vn 1.000000 -0.000000 0.000000
vn 1.000000 0.000000 0.000000
vn -0.000000 0.000000 -1.000000
vn -0.000000 0.000000 -1.000000
vn 0.000000 -0.000000 -1.000000
vn 0.000000 0.000000 -1.000000
vn -0.000000 0.000000 -1.000000
vn -0.000000 -0.000000 -1.000000
vn -0.000000 -0.000000 -1.000000
vn -0.000000 0.000000 1.000000
vn -0.000000 0.000000 1.000000
vn -0.000000 0.000000 1.000000
vn -0.000000 0.000000 1.000000
vn -0.000000 0.000000 1.000000
vn 0.000000 0.000000 1.000000
vn -1.000000 0.000000 0.000000
vn -1.000000 0.000000 0.000000
vn -1.000000 0.000000 0.000000
vn -1.000000 0.000000 0.000000
vn -1.000000 0.000000 0.000000
vn -1.000000 0.000000 0.000000
vn 0.000000 1.000000 -0.000000
vn 0.000000 1.000000 0.000000
vn 0.000000 1.000000 0.000000
vn 0.000000 1.000000 -0.000000
vn 0.000000 1.000000 0.000000
vn 0.000000 0.000000 -1.000000
vn -0.000000 0.000000 -1.000000
vn 0.000000 0.000000 1.000000
vn 0.000000 0.000000 1.000000
vn 1.000000 0.000000 0.000000
vn 1.000000 -0.000000 0.000000
vn 0.000000 0.000000 -1.000000
vn 0.000000 0.000000 -1.000000
vn 0.000000 0.000000 1.000000
vn 0.000000 0.000000 1.000000
vn 1.000000 0.000000 0.000000
vn 1.000000 -0.000000 0.000000
vn 0.000000 0.000000 1.000000
vn 0.000000 0.000000 1.000000
vn 1.000000 0.000000 0.000000
vn 1.000000 -0.000000 0.000000
vn -1.000000 0.000000 0.000000
vn -1.000000 0.000000 0.000000
vn 0.000000 0.000000 1.000000
vn -0.000000 0.000000 1.000000
vn 1.000000 -0.000000 0.000000
vn 1.000000 0.000000 0.000000
vn -1.000000 0.000000 0.000000
vn -1.000000 0.000000 0.000000
vn 0.000000 0.000000 1.000000
vn -0.000000 0.000000 1.000000
vn -1.000000 0.000000 0.000000
vn -1.000000 0.000000 0.000000
vn 0.000000 0.000000 1.000000
vn -0.000000 0.000000 1.000000
vn 0.000000 0.000000 -1.000000
vn 0.000000 0.000000 -1.000000
vn -1.000000 0.000000 0.000000
vn -1.000000 0.000000 0.000000
vn 0.000000 0.000000 1.000000
vn 0.000000 0.000000 1.000000
vn -1.000000 0.000000 0.000000
vn -1.000000 0.000000 0.000000
vn 0.000000 0.000000 -1.000000
vn -0.000000 0.000000 -1.000000
vn -1.000000 0.000000 0.000000
vn -1.000000 0.000000 0.000000
vn 1.000000 0.000000 0.000000
vn 1.000000 0.000000 0.000000
vn 0.000000 0.000000 -1.000000
vn -0.000000 0.000000 -1.000000
vn -1.000000 0.000000 0.000000
vn -1.000000 0.000000 0.000000
vn 1.000000 0.000000 0.000000
vn 1.000000 0.000000 0.000000
vn 0.000000 0.000000 -1.000000
vn -0.000000 0.000000 -1.000000
vn 1.000000 -0.000000 0.000000
vn 1.000000 0.000000 0.000000
vn 0.000000 0.000000 -1.000000
vn -0.000000 0.000000 -1.000000
vn 0.000000 1.000000 -0.000000
vn 0.000000 1.000000 0.000000
vn 0.000000 -1.000000 0.000000
vn 0.000000 -1.000000 0.000000
vn 0.000000 -1.000000 0.000000
vn 0.000000 -1.000000 0.000000
vn 0.000000 -1.000000 0.000000
vn 0.000000 -1.000000 0.000000
vn 1.000000 0.000000 0.000000
vn 1.000000 0.000000 0.000000
vn -0.995361 -0.096209 -0.000000
vn -0.995361 -0.096209 0.000000
vn -0.953247 -0.302193 0.000000
vn -0.953247 -0.302193 -0.000000
vn -0.868996 -0.494819 0.000000
vn -0.868996 -0.494819 -0.000000
vn -0.746334 -0.665572 0.000000
vn -0.746334 -0.665572 -0.000000
vn -0.590681 -0.806905 0.000000
vn -0.590681 -0.806905 -0.000000
vn -0.408918 -0.912571 0.000000
vn -0.408918 -0.912571 -0.000000
vn -0.209081 -0.977898 0.000000
vn -0.209081 -0.977898 -0.000000
vn 0.000000 -1.000000 0.000000
vn 0.209079 -0.977899 0.000000
vn -0.000000 -1.000000 -0.000000
vn 0.209079 -0.977899 0.000000
vn 0.408918 -0.912571 0.000000
vn 0.408918 -0.912571 0.000000
vn 0.590680 -0.806906 0.000000
vn 0.590680 -0.806906 0.000000
vn 0.746333 -0.665572 0.000000
vn 0.868996 -0.494819 0.000000
vn 0.746333 -0.665572 0.000000
vn 0.868996 -0.494819 0.000000
vn 0.953247 -0.302193 0.000000
vn 0.953247 -0.302193 0.000000
vn 0.995361 -0.096209 0.000000
vn 0.995361 -0.096209 0.000000
vn -1.000000 0.000000 -0.000000
vn -1.000000 0.000000 0.000000
vn -1.000000 0.000000 -0.000000
vn -1.000000 0.000000 0.000000
vn 0.000000 -0.000000 -1.000000
vn -0.000000 0.000000 -1.000000
vn 0.000000 1.000000 0.000000
vn 0.000000 1.000000 0.000000
vn 0.000000 1.000000 -0.000000
vn 0.000000 1.000000 0.000000
vn 0.000000 1.000000 -0.000000
vn 0.000000 0.000000 -1.000000
vn -0.000000 0.000000 -1.000000
vn 0.000000 0.000000 -1.000000
vn 0.000000 0.000000 -1.000000
vn 0.000000 0.000000 -1.000000
vn -0.000000 0.000000 -1.000000
vn -1.000000 0.000000 0.000000
vn -1.000000 0.000000 0.000000
vn 0.000000 1.000000 0.000000
vn 0.000000 1.000000 -0.000000
vn 0.000000 1.000000 -0.000000
vn 0.000000 1.000000 -0.000000
vn 0.000000 1.000000 -0.000000
vn 0.000000 1.000000 0.000000
vn -1.000000 0.000000 0.000000
vn -1.000000 0.000000 0.000000
vn -1.000000 0.000000 0.000000
vn -1.000000 0.000000 0.000000
vn 0.000000 1.000000 -0.000000
vn 0.000000 1.000000 0.000000
vn 0.000000 1.000000 0.000000
vn 0.000000 1.000000 -0.000000
vn 0.000000 1.000000 0.000000
vn 0.000000 1.000000 0.000000
vn 0.000000 1.000000 0.000000
vn 0.000000 1.000000 -0.000000
vn 0.000000 0.000000 1.000000
vn 0.000000 0.000000 1.000000
vn 0.000000 0.000000 1.000000
vn 0.000000 0.000000 1.000000
vn 0.000000 0.000000 1.000000
vn 0.000000 0.000000 1.000000
vn 0.000000 0.000000 1.000000
vn 0.000000 0.000000 1.000000
vn 0.000000 0.000000 1.000000
vn 0.000000 0.000000 1.000000
vn 0.000000 0.000000 1.000000
vn 0.000000 0.000000 1.000000
vn 0.000000 0.000000 1.000000
vn 0.000000 0.000000 1.000000
vn 0.000000 0.000000 1.000000
vn 0.000000 -0.000000 1.000000
f 1//1 2//1 3//1
f 1//2 3//2 4//2
f 5//3 1//3 4//3
f 2//4 6//4 7//4
f 2//5 7//5 3//5
f 8//6 5//6 4//6
f 8//7 4//7 9//7
f 10//8 8//8 9//8
f 2//9 1//9 6//9
f 11//10 1//10 5//10
f 12//11 1//11 11//11
f 13//12 1//12 12//12
f 14//13 1//13 13//13
f 4//14 15//14 9//14
f 4//15 7//15 15//15
f 4//16 3//16 7//16
f 16//17 7//17 17//17
f 17//18 7//18 6//18
f 18//19 10//19 9//19
f 18//20 9//20 15//20
f 19//21 8//21 20//21
f 21//22 8//22 19//22
f 22//23 8//23 21//23
f 5//24 8//24 22//24
f 18//25 8//25 10//25
f 23//26 24//26 25//26
f 23//27 26//27 24//27
f 6//28 27//28 23//28
f 1//29 27//29 6//29
f 23//30 27//30 26//30
f 1//31 28//31 27//31
f 1//32 14//32 28//32
f 14//33 13//33 29//33
f 14//34 29//34 30//34
f 13//35 12//35 29//35
f 29//36 12//36 31//36
f 32//37 33//37 34//37
f 35//38 32//38 36//38
f 37//39 35//39 24//39
f 37//40 24//40 26//40
f 38//41 33//41 32//41
f 38//42 32//42 35//42
f 38//43 35//43 37//43
f 39//44 38//44 37//44
f 40//45 39//45 27//45
f 40//46 27//46 28//46
f 41//47 42//47 43//47
f 41//48 43//48 44//48
f 45//49 46//49 41//49
f 45//50 41//50 44//50
f 47//51 40//51 48//51
f 47//52 39//52 40//52
f 49//53 45//53 44//53
f 50//54 44//54 38//54
f 50//55 38//55 39//55
f 50//56 39//56 47//56
f 51//57 52//57 45//57
f 51//58 45//58 49//58
f 11//59 47//59 12//59
f 11//60 50//60 47//60
f 53//61 49//61 44//61
f 54//62 44//62 50//62
f 54//63 53//63 44//63
f 55//64 53//64 54//64
f 56//65 55//65 54//65
f 22//66 56//66 54//66
f 57//67 55//67 56//67
f 58//68 59//68 53//68
f 58//69 53//69 55//69
f 21//70 56//70 22//70
f 5//71 22//71 60//71
f 5//72 60//72 61//72
f 11//73 5//73 61//73
f 7//74 16//74 62//74
f 7//75 62//75 15//75
f 63//76 62//76 17//76
f 17//77 62//77 16//77
f 64//78 65//78 66//78
f 67//79 23//79 68//79
f 68//80 23//80 69//80
f 69//81 23//81 65//81
f 65//82 23//82 66//82
f 67//83 70//83 23//83
f 70//84 71//84 23//84
f 71//85 72//85 23//85
f 72//86 73//86 23//86
f 17//87 74//87 75//87
f 74//88 6//88 76//88
f 76//89 6//89 77//89
f 77//90 6//90 78//90
f 78//91 6//91 79//91
f 79//92 6//92 80//92
f 80//93 6//93 81//93
f 81//94 6//94 82//94
f 82//95 6//95 73//95
f 73//96 6//96 23//96
f 17//97 6//97 74//97
f 15//98 62//98 63//98
f 15//99 63//99 18//99
f 21//100 19//100 83//100
f 83//101 19//101 84//101
f 19//102 20//102 84//102
f 84//103 20//103 85//103
f 52//104 86//104 87//104
f 51//105 86//105 52//105
f 59//106 18//106 86//106
f 59//107 8//107 18//107
f 59//108 86//108 51//108
f 58//109 8//109 59//109
f 20//110 8//110 58//110
f 25//111 24//111 88//111
f 88//112 24//112 89//112
f 26//113 27//113 90//113
f 90//114 27//114 91//114
f 28//115 14//115 30//115
f 28//116 30//116 92//116
f 86//117 42//117 87//117
f 86//118 43//118 42//118
f 23//119 33//119 86//119
f 86//120 33//120 43//120
f 23//121 34//121 33//121
f 23//122 25//122 34//122
f 29//123 93//123 30//123
f 30//124 93//124 92//124
f 93//125 94//125 92//125
f 31//126 95//126 29//126
f 29//127 95//127 93//127
f 12//128 47//128 31//128
f 31//129 47//129 95//129
f 33//130 38//130 96//130
f 33//131 96//131 97//131
f 38//132 44//132 98//132
f 38//133 98//133 96//133
f 44//134 43//134 99//134
f 44//135 99//135 98//135
f 42//136 41//136 100//136
f 42//137 100//137 101//137
f 41//138 46//138 102//138
f 41//139 102//139 100//139
f 46//140 45//140 103//140
f 46//141 103//141 102//141
f 45//142 52//142 104//142
f 45//143 104//143 103//143
f 51//144 49//144 105//144
f 105//145 49//145 106//145
f 49//146 53//146 106//146
f 106//147 53//147 107//147
f 53//148 59//148 107//148
f 107//149 59//149 108//149
f 58//150 55//150 109//150
f 109//151 55//151 110//151
f 55//152 57//152 110//152
f 110//153 57//153 111//153
f 57//154 56//154 111//154
f 111//155 56//155 112//155
f 56//156 21//156 112//156
f 112//157 21//157 83//157
f 22//158 54//158 113//158
f 22//159 113//159 60//159
f 54//160 50//160 114//160
f 54//161 114//161 113//161
f 50//162 11//162 61//162
f 50//163 61//163 114//163
f 47//164 48//164 95//164
f 95//165 48//165 93//165
f 48//166 40//166 93//166
f 93//167 40//167 94//167
f 40//168 28//168 92//168
f 40//169 92//169 94//169
f 27//170 39//170 91//170
f 91//171 39//171 115//171
f 39//172 37//172 115//172
f 115//173 37//173 116//173
f 37//174 26//174 116//174
f 116//175 26//175 90//175
f 24//176 35//176 89//176
f 89//177 35//177 117//177
f 35//178 36//178 117//178
f 117//179 36//179 118//179
f 36//180 32//180 118//180
f 118//181 32//181 119//181
f 32//182 34//182 119//182
f 119//183 34//183 120//183
f 60//184 113//184 61//184
f 61//185 113//185 114//185
f 66//186 121//186 64//186
f 122//187 17//187 75//187
f 121//188 123//188 122//188
f 66//189 123//189 121//189
f 122//190 63//190 17//190
f 123//191 63//191 122//191
f 65//192 64//192 124//192
f 124//193 64//193 121//193
f 74//194 76//194 125//194
f 125//195 76//195 126//195
f 126//196 77//196 127//196
f 76//197 77//197 126//197
f 127//198 78//198 128//198
f 77//199 78//199 127//199
f 128//200 79//200 129//200
f 78//201 79//201 128//201
f 129//202 80//202 130//202
f 79//203 80//203 129//203
f 130//204 81//204 131//204
f 80//205 81//205 130//205
f 131//206 82//206 132//206
f 81//207 82//207 131//207
f 132//208 73//208 133//208
f 133//209 73//209 134//209
f 82//210 73//210 132//210
f 73//211 72//211 134//211
f 134//212 71//212 135//212
f 72//213 71//213 134//213
f 135//214 70//214 136//214
f 71//215 70//215 135//215
f 136//216 67//216 137//216
f 137//217 67//217 138//217
f 70//218 67//218 136//218
f 67//219 68//219 138//219
f 138//220 69//220 139//220
f 68//221 69//221 138//221
f 139//222 65//222 124//222
f 69//223 65//223 139//223
f 75//224 74//224 122//224
f 122//225 74//225 125//225
f 66//226 23//226 123//226
f 123//227 23//227 86//227
f 18//228 63//228 123//228
f 18//229 123//229 86//229
f 109//230 110//230 111//230
f 83//231 111//231 112//231
f 84//232 111//232 83//232
f 85//233 109//233 111//233
f 85//234 111//234 84//234
f 20//235 58//235 85//235
f 85//236 58//236 109//236
f 52//237 87//237 140//237
f 52//238 140//238 104//238
f 59//239 51//239 108//239
f 108//240 51//240 105//240
f 34//241 25//241 120//241
f 120//242 25//242 88//242
f 118//243 120//243 88//243
f 118//244 88//244 89//244
f 119//245 120//245 118//245
f 117//246 118//246 89//246
f 115//247 90//247 91//247
f 115//248 116//248 90//248
f 43//249 33//249 97//249
f 43//250 97//250 99//250
f 87//251 42//251 101//251
f 87//252 101//252 140//252
f 98//253 99//253 96//253
f 96//254 99//254 97//254
f 103//255 104//255 102//255
f 102//256 101//256 100//256
f 102//257 140//257 101//257
f 104//258 140//258 102//258
f 108//259 105//259 106//259
f 108//260 106//260 107//260
f 138//261 136//261 137//261
f 132//262 133//262 134//262
f 132//263 134//263 135//263
f 131//264 135//264 136//264
f 131//265 136//265 138//265
f 131//266 132//266 135//266
f 129//267 130//267 131//267
f 127//268 128//268 129//268
f 127//269 131//269 138//269
f 127//270 129//270 131//270
f 125//271 124//271 121//271
f 125//272 126//272 127//272
f 125//273 138//273 139//273
f 125//274 139//274 124//274
f 125//275 127//275 138//275
f 122//276 125//276 121//276
